The Melvins - The War on Wisdom
Live @ The Troubadour, Hollywood, CA

2012/04/13 - PRO-SHOT



Screenshots: 
 
http://i.imgur.com/gJccs.jpg 
http://i.imgur.com/Hh0IU.jpg 
http://i.imgur.com/rANQw.jpg


Format : MPEG-PS 
File size : 174 MiB 
Duration : 3mn 25s 
Overall bit rate : 7 106 Kbps 

Video 
ID : 224 (0xE0) 
Format : MPEG Video 
Format version : Version 1 
Format settings, BVOP : No 
Format settings, Matrix : Default 
Duration : 3mn 25s 
Bit rate mode : Variable 
Bit rate : 6 772 Kbps 
Width : 1 280 pixels 
Height : 768 pixels 
Display aspect ratio : 16:9 
Frame rate : 25.000 fps 
Color space : YUV 
Bit depth : 8 bits 
Scan type : Progressive 
Compression mode : Lossy 
Bits/(Pixel*Frame) : 0.276 
Stream size : 166 MiB (95%) 

Audio 
ID : 192 (0xC0) 
Format : MPEG Audio 
Format version : Version 1 
Format profile : Layer 2 
Duration : 3mn 25s 
Bit rate mode : Constant 
Bit rate : 192 Kbps 
Channel(s) : 2 channels 
Sampling rate : 44.1 KHz 
Compression mode : Lossy 
Stream size : 4.69 MiB (3%) 



As broadcasted on Carson Daly 2012/04/25.